<?xml version="1.0" encoding="UTF-8" standalone="no"?>
<!DOCTYPE svg PUBLIC "-//W3C//DTD SVG 1.1//EN"
 "http://www.w3.org/Graphics/SVG/1.1/DTD/svg11.dtd">
<!-- Generated by graphviz version 2.38.0 (20140413.2041)
 -->
<!-- Title: G Pages: 1 -->
<svg width="185pt" height="420pt"
 viewBox="0.00 0.00 185.00 420.00" xmlns="http://www.w3.org/2000/svg" xmlns:xlink="http://www.w3.org/1999/xlink">
<g id="graph0" class="graph" transform="scale(1 1) rotate(0) translate(4 416)">
<title>G</title>
<polygon fill="white" stroke="none" points="-4,4 -4,-416 181,-416 181,4 -4,4"/>
<g id="clust1" class="cluster"><title>cluster_Global</title>
<path fill="none" stroke="gray" d="M20,-8C20,-8 157,-8 157,-8 163,-8 169,-14 169,-20 169,-20 169,-392 169,-392 169,-398 163,-404 157,-404 157,-404 20,-404 20,-404 14,-404 8,-398 8,-392 8,-392 8,-20 8,-20 8,-14 14,-8 20,-8"/>
<text text-anchor="middle" x="88.5" y="-391.2" font-family="Times New Roman,serif" font-size="11.00" fill="gray">Global</text>
</g>
<!-- \\Database -->
<g id="node1" class="node"><title>\\Database</title>
<polygon fill="none" stroke="black" points="124,-376 53,-376 53,-340 124,-340 124,-376"/>
<text text-anchor="middle" x="88.5" y="-355.2" font-family="Courier,monospace" font-size="11.00">Database</text>
</g>
<!-- \\FacilityManager -->
<g id="node2" class="node"><title>\\FacilityManager</title>
<polygon fill="none" stroke="black" points="147.5,-322 29.5,-322 29.5,-286 147.5,-286 147.5,-322"/>
<text text-anchor="middle" x="88.5" y="-301.2" font-family="Courier,monospace" font-size="11.00">FacilityManager</text>
</g>
<!-- \\AvailabilityManager -->
<g id="node3" class="node"><title>\\AvailabilityManager</title>
<polygon fill="none" stroke="black" points="161,-268 16,-268 16,-232 161,-232 161,-268"/>
<text text-anchor="middle" x="88.5" y="-247.2" font-family="Courier,monospace" font-size="11.00">AvailabilityManager</text>
</g>
<!-- \\BookingManager -->
<g id="node4" class="node"><title>\\BookingManager</title>
<polygon fill="none" stroke="black" points="144,-214 33,-214 33,-178 144,-178 144,-214"/>
<text text-anchor="middle" x="88.5" y="-193.2" font-family="Courier,monospace" font-size="11.00">BookingManager</text>
</g>
<!-- \\App -->
<g id="node5" class="node"><title>\\App</title>
<polygon fill="none" stroke="black" points="115.5,-160 61.5,-160 61.5,-124 115.5,-124 115.5,-160"/>
<text text-anchor="middle" x="88.5" y="-139.2" font-family="Courier,monospace" font-size="11.00">App</text>
</g>
<!-- \\RequestManager -->
<g id="node6" class="node"><title>\\RequestManager</title>
<polygon fill="none" stroke="black" points="144,-106 33,-106 33,-70 144,-70 144,-106"/>
<text text-anchor="middle" x="88.5" y="-85.2" font-family="Courier,monospace" font-size="11.00">RequestManager</text>
</g>
<!-- \\UserManager -->
<g id="node7" class="node"><title>\\UserManager</title>
<polygon fill="none" stroke="black" points="134,-52 43,-52 43,-16 134,-16 134,-52"/>
<text text-anchor="middle" x="88.5" y="-31.2" font-family="Courier,monospace" font-size="11.00">UserManager</text>
</g>
</g>
</svg>
